<?xml version="1.0" encoding="utf-8"?>
<!-- Generator: Adobe Illustrator 25.0.0, SVG Export Plug-In . SVG Version: 6.00 Build 0)  -->
<svg version="1.1" id="Capa_1" xmlns="http://www.w3.org/2000/svg" xmlns:xlink="http://www.w3.org/1999/xlink" x="0px" y="0px"
	 viewBox="0 0 182.5 114.5" style="enable-background:new 0 0 182.5 114.5;" xml:space="preserve">
<style type="text/css">
	.st0{fill:url(#SVGID_1_);}
	.st1{fill:#4BEDB1;}
	.st2{fill:#2A3B5A;}
	.st3{fill:#6C7792;}
	.st4{fill:url(#SVGID_2_);}
	.st5{fill:url(#SVGID_3_);}
	.st6{fill:#FFFFFF;}
	.st7{fill:url(#SVGID_4_);}
	.st8{fill:url(#SVGID_5_);}
	.st9{fill:#301889;}
	.st10{fill:#815BF0;}
</style>
<linearGradient id="SVGID_1_" gradientUnits="userSpaceOnUse" x1="-1.5881" y1="39.3985" x2="95.0544" y2="74.5735">
	<stop  offset="0.3908" style="stop-color:#815BF0"/>
	<stop  offset="0.7428" style="stop-color:#4BEDB1"/>
</linearGradient>
<path class="st0" d="M81.4,91l-3.3,5l-0.3,0.4l0,0c-0.1,0.2-0.2,0.3-0.3,0.5c-0.1,0.2-0.3,0.4-0.4,0.5c0,0,0,0,0,0l-0.1,0.1
	c-0.1,0.1-0.1,0.2-0.2,0.3c0,0-0.1,0.1-0.1,0.1l-0.3,0.3c-0.1,0.1-0.2,0.2-0.3,0.2l-0.2,0.2c0,0-0.1,0.1-0.2,0.1
	c-0.1,0.1-0.2,0.1-0.3,0.2c-0.1,0.1-0.1,0.1-0.2,0.1c-0.1,0.1-0.3,0.2-0.5,0.3c-0.1,0.1-0.2,0.1-0.3,0.2c-0.1,0-0.2,0.1-0.3,0.1
	c-0.1,0.1-0.2,0.1-0.3,0.2c-0.2,0.1-0.4,0.2-0.6,0.3c-0.3,0.1-0.6,0.3-0.9,0.3c-0.1,0-0.3,0.1-0.4,0.1c-0.1,0-0.2,0.1-0.4,0.1
	l-0.2,0c-0.1,0-0.3,0.1-0.4,0.1c0,0-0.1,0-0.2,0c-0.1,0-0.1,0-0.2,0c0,0-0.1,0-0.2,0c-0.1,0-0.1,0-0.2,0c-0.2,0-0.3,0-0.5,0
	c-0.2,0-0.4,0-0.6,0c-0.2,0-0.4,0-0.6,0c-0.5,0-1-0.1-1.4-0.2c-0.1,0-0.1,0-0.2,0c-0.2,0-0.3-0.1-0.5-0.1c0,0-0.1,0-0.1,0
	c-0.5-0.1-1-0.3-1.5-0.6c-0.3-0.1-0.5-0.3-0.8-0.4c-0.1-0.1-0.2-0.1-0.3-0.2c-0.1-0.1-0.2-0.2-0.3-0.2l-0.8-0.7
	c-0.3-0.3-0.6-0.6-0.9-0.9l-0.7-0.9c-0.1-0.1-0.1-0.2-0.2-0.2c-0.1-0.2-0.2-0.3-0.3-0.5l-9.2-14.2L17.1,29.1c-3-4.7-1.7-11,3-14
	c1.6-1.1,3.5-1.6,5.5-1.6c3.4,0,6.6,1.7,8.5,4.6l29.4,45.2l5.7,9l6.4-9.9l-6.2-8.2L42.4,12.6c-3.7-5.7-10-9.2-16.9-9.2
	c-3.9,0-7.7,1.1-10.9,3.3c-9.3,6-12,18.5-5.9,27.8l43.5,67c0.3,0.4,0.6,0.9,0.9,1.3l0.9,1.1c0.2,0.2,0.4,0.5,0.6,0.7
	c0.1,0.1,0.1,0.1,0.2,0.2l0.7,0.7l0.1,0.1c0.2,0.2,0.5,0.4,0.8,0.7c0.7,0.6,1.4,1.1,2.1,1.6c0.2,0.2,0.5,0.3,0.7,0.4
	c0.2,0.1,0.3,0.2,0.5,0.3c0.3,0.2,0.6,0.3,0.9,0.5c0,0,0.1,0,0.1,0.1c0.3,0.2,0.6,0.3,0.9,0.4c0.6,0.3,1.3,0.5,1.9,0.7
	c0.4,0.1,0.9,0.3,1.3,0.4c0.1,0,0.1,0,0.2,0c0.1,0,0.3,0.1,0.4,0.1c0.8,0.2,1.7,0.3,2.5,0.3c0.4,0,0.9,0.1,1.3,0.1h0.1
	c0.4,0,0.7,0,1.1,0c0.3,0,0.7,0,1.1-0.1c0.1,0,0.2,0,0.2,0c0.2,0,0.4-0.1,0.6-0.1c0.2,0,0.5-0.1,0.7-0.1c0.2,0,0.5-0.1,0.6-0.1
	c0.3-0.1,0.6-0.1,0.9-0.2c0,0,0.1,0,0.1,0c0.2,0,0.3-0.1,0.5-0.1l0.2-0.1c1-0.3,2-0.7,3-1.2c0.3-0.1,0.6-0.3,0.8-0.4
	c0.4-0.2,0.9-0.5,1.3-0.8c0.1-0.1,0.2-0.2,0.4-0.2c0.1,0,0.1-0.1,0.2-0.1c0,0,0.1-0.1,0.1-0.1c0.3-0.2,0.5-0.3,0.7-0.5
	c0.2-0.2,0.4-0.4,0.6-0.5c0.6-0.5,1.2-1.1,1.7-1.6L81.4,91z"/>
<path class="st1" d="M173.8,80l-43.5-67l0,0l-0.1-0.1l-0.2-0.3c-0.2-0.3-0.4-0.6-0.6-0.8l-0.9-1.1c-0.3-0.3-0.5-0.6-0.8-0.9
	l-0.2-0.2L127,8.9c-0.3-0.3-0.6-0.5-0.9-0.8L125.9,8L125,7.3c-0.3-0.2-0.5-0.4-0.8-0.6c-0.4-0.3-0.8-0.5-1.3-0.8
	c-0.4-0.2-0.7-0.4-1.1-0.6c-0.2-0.1-0.5-0.2-0.7-0.3c-0.3-0.1-0.7-0.3-1-0.4c-0.3-0.1-0.7-0.2-1-0.3l-0.1,0l-0.1,0
	c-0.1,0-0.1,0-0.2,0c-0.1,0-0.2-0.1-0.3-0.1c-0.3-0.1-0.7-0.2-0.9-0.2c-0.3-0.1-0.5-0.1-0.8-0.2c-0.4-0.1-0.8-0.1-1.2-0.2
	c0,0-0.1,0-0.1,0c-0.4,0-0.7-0.1-1.1-0.1h-0.2c-0.7,0-1.5,0-2.2,0c-0.4,0-0.8,0.1-1.1,0.1c-0.4,0-0.9,0.1-1.3,0.2
	c-0.3,0-0.5,0.1-0.8,0.1c-0.3,0.1-0.7,0.1-1,0.2c-0.2,0-0.3,0.1-0.5,0.1l-0.1,0c-0.3,0.1-0.7,0.2-1,0.3c-1,0.4-1.9,0.8-2.8,1.3
	c-0.2,0.1-0.4,0.2-0.7,0.4c-0.2,0.1-0.4,0.3-0.6,0.4c-0.2,0.1-0.4,0.3-0.6,0.4c-0.1,0-0.1,0.1-0.2,0.1c-0.2,0.1-0.3,0.2-0.4,0.3
	c-0.2,0.2-0.5,0.4-0.7,0.5c-0.1,0.1-0.1,0.1-0.2,0.2c-0.3,0.2-0.5,0.5-0.8,0.7l-0.8,0.8c-0.1,0.1-0.3,0.3-0.4,0.4
	c-0.1,0.1-0.2,0.3-0.4,0.4c0,0-0.1,0.1-0.1,0.1c-0.1,0.1-0.2,0.3-0.3,0.4c-0.2,0.2-0.3,0.4-0.5,0.6c-0.2,0.3-0.4,0.5-0.6,0.8
	L52.5,80c-0.4,0.6-0.8,1.3-1.1,1.9c-1.4,2.8-2.2,5.9-2.2,9c0,3.8,1.1,7.4,3,10.5c0.3,0.4,0.6,0.9,0.9,1.3l0.9,1.1
	c0.2,0.2,0.4,0.5,0.6,0.7c0.3,0.3,0.6,0.6,0.9,0.9c0.3,0.3,0.6,0.5,0.9,0.8c0.7,0.6,1.4,1.1,2.1,1.6c0.2,0.2,0.5,0.3,0.7,0.4
	c0.2,0.1,0.3,0.2,0.5,0.3c0.3,0.2,0.6,0.3,0.9,0.5c0,0,0.1,0,0.1,0.1c0.3,0.2,0.6,0.3,0.9,0.4c0.6,0.3,1.3,0.5,1.9,0.7
	c0.4,0.1,0.9,0.3,1.3,0.4c0.1,0,0.1,0,0.2,0c0.1,0,0.3,0.1,0.4,0.1c0.8,0.2,1.7,0.3,2.5,0.3c0.4,0,0.9,0.1,1.3,0.1h0.1
	c0.4,0,0.7,0,1.1,0c0.3,0,0.7,0,1.1-0.1c0.3,0,0.6-0.1,0.9-0.1c0.2,0,0.5-0.1,0.7-0.1c0.2,0,0.4-0.1,0.5-0.1c0.3-0.1,0.7-0.1,1-0.2
	c0,0,0.1,0,0.1,0c0.2-0.1,0.4-0.1,0.6-0.2c1-0.3,2-0.7,3-1.2c0.3-0.1,0.6-0.3,0.8-0.4c0,0,0.1,0,0.1,0c0.6-0.3,1.1-0.6,1.6-1
	c0.1,0,0.1-0.1,0.2-0.1c0.3-0.2,0.6-0.4,0.8-0.6c0.2-0.2,0.4-0.4,0.6-0.5c0.6-0.5,1.2-1.1,1.7-1.7c0.2-0.2,0.4-0.4,0.5-0.6
	c0.2-0.2,0.3-0.4,0.5-0.6c0.2-0.2,0.3-0.4,0.5-0.7c0.2-0.3,0.4-0.5,0.6-0.8l23.5-36.2c1.6-2.5,5.2-2.5,6.8,0l23.5,36.2
	c3.7,5.7,10,9.2,16.9,9.2c3.9,0,7.7-1.1,10.9-3.2C177.2,101.8,179.8,89.3,173.8,80z M162.4,99.5c-1.6,1.1-3.5,1.6-5.5,1.6
	c-3.4,0-6.6-1.7-8.5-4.6l-31.9-49.1c-1.6-2.5-5.2-2.5-6.8,0L77.9,96.4l0,0c-0.1,0.2-0.2,0.3-0.3,0.5c-0.1,0.2-0.3,0.4-0.4,0.5
	c0,0,0,0,0,0c-0.1,0.1-0.2,0.3-0.3,0.4c0,0-0.1,0.1-0.1,0.1c-0.2,0.2-0.5,0.5-0.7,0.7c0,0-0.1,0.1-0.2,0.1c-0.1,0.1-0.2,0.1-0.3,0.2
	c-0.1,0.1-0.1,0.1-0.2,0.1c-0.1,0.1-0.3,0.2-0.5,0.3c-0.1,0.1-0.2,0.1-0.3,0.2c-0.2,0.1-0.4,0.2-0.6,0.3c-0.2,0.1-0.4,0.2-0.6,0.3
	c-0.6,0.3-1.2,0.5-1.9,0.6c-0.1,0-0.3,0.1-0.4,0.1c-0.1,0-0.1,0-0.2,0c-0.1,0-0.1,0-0.2,0c-0.1,0-0.2,0-0.4,0c-0.2,0-0.4,0-0.5,0
	c-0.2,0-0.4,0-0.6,0c-0.2,0-0.4,0-0.6,0c-0.5,0-1-0.1-1.4-0.2c-0.1,0-0.1,0-0.2,0c-0.2,0-0.3-0.1-0.5-0.1c0,0-0.1,0-0.1,0
	c-0.5-0.1-1-0.3-1.5-0.6c-0.3-0.1-0.5-0.3-0.8-0.4c-0.1-0.1-0.2-0.1-0.3-0.2c-0.1-0.1-0.2-0.2-0.3-0.2c-0.3-0.2-0.6-0.4-0.8-0.7
	c-0.3-0.3-0.6-0.6-0.9-0.9c-0.4-0.5-0.8-1-1.1-1.6c-0.9-1.5-1.4-3.3-1.4-5.2c0-1.9,0.6-3.8,1.6-5.5l43.5-67l0.3-0.5
	c0.1-0.1,0.2-0.3,0.3-0.4c0-0.1,0.1-0.1,0.2-0.2c0.1-0.2,0.2-0.3,0.4-0.5l0.1-0.1c0.1-0.1,0.2-0.2,0.2-0.3l0.4-0.4
	c0.1-0.1,0.2-0.2,0.3-0.2l0.2-0.2c0.2-0.1,0.3-0.2,0.5-0.4c0.1-0.1,0.3-0.2,0.4-0.3c0,0,0,0,0,0c0.1-0.1,0.2-0.1,0.4-0.2
	c0.2-0.1,0.4-0.3,0.7-0.4c0.5-0.2,0.9-0.4,1.3-0.5l0,0l1.4-0.3c0.1,0,0.2,0,0.5-0.1c0.2,0,0.4,0,0.6-0.1c0.4,0,0.8,0,1.3,0
	c0.4,0,0.7,0.1,1.1,0.1c0.2,0,0.5,0.1,0.7,0.1l0.6,0.2c0.2,0.1,0.4,0.1,0.7,0.2c0.2,0.1,0.4,0.2,0.6,0.2c0.2,0.1,0.5,0.2,0.7,0.4
	c0.2,0.1,0.4,0.2,0.5,0.3c0.1,0.1,0.3,0.2,0.4,0.3l0.8,0.7c0.1,0.1,0.2,0.1,0.3,0.2l0.4,0.4c0.1,0.1,0.2,0.2,0.2,0.2l0.1,0.1
	l0.6,0.8l0,0c0.1,0.1,0.2,0.3,0.3,0.4l0.1,0.1l43.7,67.3C168.5,90.1,167.1,96.4,162.4,99.5z"/>
</svg>
