<?xml version="1.0" encoding="UTF-8"?>
<!-- Generator: Adobe Illustrator 28.0.0, SVG Export Plug-In . SVG Version: 6.00 Build 0)  -->
<svg xmlns="http://www.w3.org/2000/svg" xmlns:xlink="http://www.w3.org/1999/xlink" version="1.1" id="Capa_1" x="0px" y="0px" viewBox="0 0 283.5 283.5" style="enable-background:new 0 0 283.5 283.5;" xml:space="preserve">
<style type="text/css">
	.st0{fill:#FFFFFF;}
	.st1{fill:url(#SVGID_1_);}
</style>
<g id="Calque_2">
	<g id="Calque_1-2">
		<circle class="st0" cx="141.7" cy="141.7" r="141.7"></circle>
		
			<linearGradient id="SVGID_1_" gradientUnits="userSpaceOnUse" x1="42.6967" y1="50.6433" x2="224.7567" y2="232.7033" gradientTransform="matrix(1 0 0 -1 -1.800076e-03 283.8978)">
			<stop offset="0" style="stop-color:#EB690A"></stop>
			<stop offset="1" style="stop-color:#E2001A"></stop>
		</linearGradient>
		<circle class="st1" cx="134.2" cy="141.7" r="130.5"></circle>
		<g>
			<path class="st0" d="M54.8,159.4c-4.6,0-9-1.9-12.2-5.2c-6.7-6.9-6.7-17.9,0-24.8c6.8-6.8,17.8-6.9,24.6-0.2     c3,2.9,4.3,6.9,6,11.6l6.3,17.7h-5l-3.8-9.6C67.6,155.6,61.8,159.4,54.8,159.4z M54.8,129c-7.1-0.2-13,5.4-13.1,12.5     c-0.2,7.1,5.4,13,12.5,13.1c7.1,0.2,13-5.4,13.1-12.5c0-0.1,0-0.2,0-0.4C67.4,134.8,61.8,129.1,54.8,129     C54.8,129,54.8,129,54.8,129L54.8,129z"></path>
			<path class="st0" d="M110.2,144.7c0,8.9-6,14.7-13.8,14.7s-13.8-5.8-13.8-14.7v-19.6h4.8V145c0,5.9,4,9.6,9,9.6s9.1-3.8,9.1-9.6     v-19.9h4.8L110.2,144.7z"></path>
			<path class="st0" d="M118.7,107.9h4.8v21.5c3.3-3.3,7.8-5.1,12.4-5.1c4.6,0,9,1.8,12.1,5.1c6.7,6.9,6.7,17.9,0,24.8     c-3.2,3.3-7.6,5.2-12.1,5.2c-9.9,0-17.2-7.4-17.2-19.4c0-0.7,0-1.5,0.1-2.3V107.9z M135.8,154.6c7.1,0.1,12.9-5.5,13.1-12.5     c0.1-7.1-5.5-12.9-12.5-13.1c-7.1-0.1-12.9,5.5-13.1,12.5c0,0.1,0,0.2,0,0.3C123.2,148.8,128.8,154.6,135.8,154.6     C135.8,154.6,135.8,154.6,135.8,154.6z"></path>
			<path class="st0" d="M174.4,159.4c-4.6,0-9-1.9-12.2-5.2c-6.7-6.9-6.7-17.9,0-24.8c6.7-6.8,17.8-6.9,24.6-0.2     c3,2.9,4.3,6.9,6,11.6l6.3,17.7h-5l-3.8-9.6C187.1,155.6,181.3,159.4,174.4,159.4z M174.4,129c-7.1-0.2-12.9,5.4-13.1,12.5     c-0.2,7.1,5.4,12.9,12.5,13.1c7.1,0.2,12.9-5.4,13.1-12.5c0-0.1,0-0.2,0-0.4C186.9,134.8,181.4,129.1,174.4,129     C174.4,129,174.4,129,174.4,129L174.4,129z"></path>
			<path class="st0" d="M213.3,175.6c-6.9,0-11.7-2.2-16-7.6l3.8-3c3.6,4.5,6.8,6.3,11.9,6.3c8.9,0,13.6-5.1,13.6-14.9v-1.1     c-3.1,2.7-6.2,4.1-9.4,4.1c-3.5-0.1-6.9-1.4-9.5-3.7c-4.2-3.9-4.5-7.8-4.5-13.1v-17.6h4.5v17.5c0,7.9,3.8,12.1,9.7,12.1     c2.9,0,5.7-1.4,7.4-3.8c1.6-2,1.7-4.6,1.7-8.2v-17.6h4.9v28.8C231.4,168.3,225.2,175.6,213.3,175.6z"></path>
			<path class="st0" d="M62.4,141.9c0,4.2-3.4,7.6-7.6,7.6s-7.5-3.4-7.5-7.6c0-4.2,3.4-7.6,7.5-7.6C59,134.3,62.4,137.7,62.4,141.9     C62.4,141.9,62.4,141.9,62.4,141.9z"></path>
		</g>
	</g>
</g>
</svg>
